<mxfile host="app.diagrams.net" modified="2024-06-12T05:36:23.198Z" agent="Mozilla/5.0 (Windows NT 10.0; Win64; x64) AppleWebKit/537.36 (KHTML, like Gecko) Chrome/125.0.0.0 Safari/537.36" etag="GbF__LAfrqn9JX8xxe6W" version="24.5.3" type="github">
  <diagram name="Page-1" id="KuPHXeLFAt8E-F-tIeb9">
    <mxGraphModel dx="1434" dy="738" grid="1" gridSize="10" guides="1" tooltips="1" connect="1" arrows="1" fold="1" page="1" pageScale="1" pageWidth="850" pageHeight="1100" math="0" shadow="0">
      <root>
        <mxCell id="0" />
        <mxCell id="1" parent="0" />
        <mxCell id="aNHXKhNbydH0xrQMlsHp-3" value="" style="edgeStyle=orthogonalEdgeStyle;rounded=0;orthogonalLoop=1;jettySize=auto;html=1;strokeColor=#028090;fontColor=#E4FDE1;fillColor=#F45B69;" edge="1" parent="1" source="aNHXKhNbydH0xrQMlsHp-1" target="aNHXKhNbydH0xrQMlsHp-2">
          <mxGeometry relative="1" as="geometry" />
        </mxCell>
        <mxCell id="aNHXKhNbydH0xrQMlsHp-5" value="" style="edgeStyle=orthogonalEdgeStyle;rounded=0;orthogonalLoop=1;jettySize=auto;html=1;strokeColor=#028090;fontColor=#E4FDE1;fillColor=#F45B69;" edge="1" parent="1" source="aNHXKhNbydH0xrQMlsHp-1" target="aNHXKhNbydH0xrQMlsHp-4">
          <mxGeometry relative="1" as="geometry" />
        </mxCell>
        <mxCell id="aNHXKhNbydH0xrQMlsHp-7" value="" style="edgeStyle=orthogonalEdgeStyle;rounded=0;orthogonalLoop=1;jettySize=auto;html=1;strokeColor=#028090;fontColor=#E4FDE1;fillColor=#F45B69;" edge="1" parent="1" source="aNHXKhNbydH0xrQMlsHp-1" target="aNHXKhNbydH0xrQMlsHp-6">
          <mxGeometry relative="1" as="geometry" />
        </mxCell>
        <mxCell id="aNHXKhNbydH0xrQMlsHp-1" value="[0,0]&lt;div&gt;START&lt;/div&gt;" style="rhombus;whiteSpace=wrap;html=1;strokeColor=#028090;fontColor=#E4FDE1;fillColor=#F45B69;" vertex="1" parent="1">
          <mxGeometry x="390" y="340" width="70" height="70" as="geometry" />
        </mxCell>
        <mxCell id="aNHXKhNbydH0xrQMlsHp-2" value="Dave_Dream" style="ellipse;whiteSpace=wrap;html=1;fillColor=#F45B69;strokeColor=#028090;fontColor=#E4FDE1;" vertex="1" parent="1">
          <mxGeometry x="535" y="335" width="80" height="80" as="geometry" />
        </mxCell>
        <mxCell id="aNHXKhNbydH0xrQMlsHp-11" value="" style="edgeStyle=orthogonalEdgeStyle;rounded=0;orthogonalLoop=1;jettySize=auto;html=1;strokeColor=#028090;fontColor=#E4FDE1;fillColor=#F45B69;" edge="1" parent="1" source="aNHXKhNbydH0xrQMlsHp-4" target="aNHXKhNbydH0xrQMlsHp-10">
          <mxGeometry relative="1" as="geometry" />
        </mxCell>
        <mxCell id="aNHXKhNbydH0xrQMlsHp-4" value="&lt;div&gt;[1,0]&lt;/div&gt;Town S/W" style="shape=process;whiteSpace=wrap;html=1;backgroundOutline=1;fillColor=#F45B69;strokeColor=#028090;fontColor=#E4FDE1;" vertex="1" parent="1">
          <mxGeometry x="215" y="345" width="120" height="60" as="geometry" />
        </mxCell>
        <mxCell id="aNHXKhNbydH0xrQMlsHp-6" value="[0,1]&lt;div&gt;Train -N&lt;/div&gt;" style="rhombus;whiteSpace=wrap;html=1;strokeColor=#028090;fontColor=#E4FDE1;fillColor=#F45B69;" vertex="1" parent="1">
          <mxGeometry x="390" y="190" width="70" height="70" as="geometry" />
        </mxCell>
        <mxCell id="aNHXKhNbydH0xrQMlsHp-10" value="" style="whiteSpace=wrap;html=1;fillColor=#F45B69;strokeColor=#028090;fontColor=#E4FDE1;" vertex="1" parent="1">
          <mxGeometry x="215" y="205" width="120" height="60" as="geometry" />
        </mxCell>
      </root>
    </mxGraphModel>
  </diagram>
</mxfile>
